<svg width="288" height="288" viewBox="0 0 288 288" fill="none" xmlns="http://www.w3.org/2000/svg">
<g filter="url(#filter0_d_203_213)">
<path d="M118.229 193.187L200.187 140.5L118.229 87.8123V193.187ZM147.5 257.583C131.303 257.583 116.083 254.51 101.837 248.363C87.5923 242.216 75.201 233.874 64.6635 223.336C54.126 212.799 45.7838 200.407 39.637 186.162C33.4901 171.917 30.4167 156.696 30.4167 140.5C30.4167 124.303 33.4901 109.082 39.637 94.8373C45.7838 80.5922 54.126 68.2009 64.6635 57.6634C75.201 47.1259 87.5923 38.7837 101.837 32.6368C116.083 26.4899 131.303 23.4165 147.5 23.4165C163.697 23.4165 178.917 26.4899 193.162 32.6368C207.408 38.7837 219.799 47.1259 230.336 57.6634C240.874 68.2009 249.216 80.5922 255.363 94.8373C261.51 109.082 264.583 124.303 264.583 140.5C264.583 156.696 261.51 171.917 255.363 186.162C249.216 200.407 240.874 212.799 230.336 223.336C219.799 233.874 207.408 242.216 193.162 248.363C178.917 254.51 163.697 257.583 147.5 257.583ZM147.5 234.167C173.649 234.167 195.797 225.093 213.945 206.945C232.093 188.797 241.167 166.648 241.167 140.5C241.167 114.351 232.093 92.203 213.945 74.055C195.797 55.9071 173.649 46.8332 147.5 46.8332C121.351 46.8332 99.2031 55.9071 81.0552 74.055C62.9073 92.203 53.8333 114.351 53.8333 140.5C53.8333 166.648 62.9073 188.797 81.0552 206.945C99.2031 225.093 121.351 234.167 147.5 234.167Z" fill="white"/>
</g>
<defs>
<filter id="filter0_d_203_213" x="-23" y="-20" width="331" height="331" filterUnits="userSpaceOnUse" color-interpolation-filters="sRGB">
<feFlood flood-opacity="0" result="BackgroundImageFix"/>
<feColorMatrix in="SourceAlpha" type="matrix" values="0 0 0 0 0 0 0 0 0 0 0 0 0 0 0 0 0 0 127 0" result="hardAlpha"/>
<feOffset dx="-5" dy="5"/>
<feGaussianBlur stdDeviation="12.5"/>
<feColorMatrix type="matrix" values="0 0 0 0 0.262745 0 0 0 0 0.380392 0 0 0 0 0.933333 0 0 0 1 0"/>
<feBlend mode="normal" in2="BackgroundImageFix" result="effect1_dropShadow_203_213"/>
<feBlend mode="normal" in="SourceGraphic" in2="effect1_dropShadow_203_213" result="shape"/>
</filter>
</defs>
</svg>
